HIERARCHY
ROOT Hips
{
	OFFSET -3.958830 18.904000 13.208200
	CHANNELS 6 Xposition Yposition Zposition Zrotation Yrotation Xrotation 
	JOINT LHipJoint
	{
		OFFSET 0.000000 0.000000 0.000000
		CHANNELS 3 Zrotation Yrotation Xrotation
		JOINT LeftUpLeg
		{
			OFFSET 1.800000 -1.400000 0.085000
			CHANNELS 3 Zrotation Yrotation Xrotation
			JOINT LeftLeg
			{
				OFFSET 2.215000 -6.000000 0.000000
				CHANNELS 3 Zrotation Yrotation Xrotation
				JOINT LeftFoot
				{
					OFFSET 2.500000 -6.900000 0.000000
					CHANNELS 3 Zrotation Yrotation Xrotation
					JOINT LeftToeBase
					{
						OFFSET 0.200000 -0.500000 1.950000
						CHANNELS 3 Zrotation Yrotation Xrotation
						End Site
						{
							OFFSET 0.000000 0.000000 0.000000
						}
					}
				}
			}
		}
	}
	JOINT RHipJoint
	{
		OFFSET 0.000000 0.000000 0.000000
		CHANNELS 3 Zrotation Yrotation Xrotation
		JOINT RightUpLeg
		{
			OFFSET -1.800000 -1.400000 0.085000
			CHANNELS 3 Zrotation Yrotation Xrotation
			JOINT RightLeg
			{
				OFFSET -2.215000 -6.000000 0.000000
				CHANNELS 3 Zrotation Yrotation Xrotation
				JOINT RightFoot
				{
					OFFSET -2.500000 -6.900000 0.000000
					CHANNELS 3 Zrotation Yrotation Xrotation
					JOINT RightToeBase
					{
						OFFSET -0.200000 -0.500000 1.950000
						CHANNELS 3 Zrotation Yrotation Xrotation
						End Site
						{
							OFFSET 0.000000 0.000000 0.000000
						}
					}
				}
			}
		}
	}
	JOINT LowerBack
	{
		OFFSET 0.000000 0.000000 0.000000
		CHANNELS 3 Zrotation Yrotation Xrotation
		JOINT Spine
		{
			OFFSET -0.087000 1.940000 -0.288900
			CHANNELS 3 Zrotation Yrotation Xrotation
			JOINT Spine1
			{
				OFFSET 0.000000 1.950000 0.060000
				CHANNELS 3 Zrotation Yrotation Xrotation
				JOINT Neck
				{
					OFFSET 0.000000 0.000000 0.000000
					CHANNELS 3 Zrotation Yrotation Xrotation
					JOINT Neck1
					{
						OFFSET 0.000000 1.600000 0.340000
						CHANNELS 3 Zrotation Yrotation Xrotation
						JOINT Head
						{
							OFFSET 0.000000 1.667000 -0.240000
							CHANNELS 3 Zrotation Yrotation Xrotation
							End Site
							{
								OFFSET 0.000000 0.000000 0.000000
							}
						}
					}
				}
				JOINT LeftShoulder
				{
					OFFSET 0.000000 0.000000 0.000000
					CHANNELS 3 Zrotation Yrotation Xrotation
					JOINT LeftArm
					{
						OFFSET 2.700000 1.550000 -0.730000
						CHANNELS 3 Zrotation Yrotation Xrotation
						JOINT LeftForeArm
						{
							OFFSET 5.450000 0.000000 0.000000
							CHANNELS 3 Zrotation Yrotation Xrotation
							JOINT LeftHand
							{
								OFFSET 3.450000 0.000000 0.000000
								CHANNELS 3 Zrotation Yrotation Xrotation
								JOINT LeftHandIndex1
								{
									OFFSET 0.750000 0.000000 0.000000
									CHANNELS 3 Zrotation Yrotation Xrotation
									End Site
									{
										OFFSET 0.000000 0.000000 0.000000
									}
								}
							}
						}
					}
				}
				JOINT RightShoulder
				{
					OFFSET 0.000000 0.000000 0.000000
					CHANNELS 3 Zrotation Yrotation Xrotation
					JOINT RightArm
					{
						OFFSET -2.700000 1.550000 -0.730000
						CHANNELS 3 Zrotation Yrotation Xrotation
						JOINT RightForeArm
						{
							OFFSET -5.450000 0.000000 0.000000
							CHANNELS 3 Zrotation Yrotation Xrotation
							JOINT RightHand
							{
								OFFSET -3.450000 0.000000 0.000000
								CHANNELS 3 Zrotation Yrotation Xrotation
								JOINT RightHandIndex1
								{
									OFFSET -0.750000 0.000000 0.000000
									CHANNELS 3 Zrotation Yrotation Xrotation
									End Site
									{
										OFFSET 0.000000 0.000000 0.000000
									}
								}
							}
						}
					}
				}
			}
		}
	}
}
MOTION
Frames: 6
Frame Time: 0.016667
4.339880 16.590490 -0.884120 7.022919 38.104351 -9.520662 -15.062409 10.520620 4.732245 19.302429 -2.966072 -14.197120 -44.614399 32.625915 38.209755 1.917753 12.932861 0.171166 0.601640 0.635310 0.360480 18.565915 -11.186697 2.224195 -2.185494 2.825682 -13.819759 5.938669 -6.895661 29.432669 -0.515469 -4.758901 2.506152 0.421940 -0.029350 0.079680 -5.297260 2.793800 -8.889302 17.505123 -1.097384 16.918035 -9.214900 3.467363 23.661024 3.152695 4.888171 -19.547823 9.886190 -13.843665 31.086692 3.413560 -12.272190 -16.174850 -0.031902 -32.064567 12.269276 -4.856984 -10.361563 0.781290 7.450096 5.913042 -0.620569 -4.172349 2.694237 0.220010 -0.115360 0.125800 0.107990 -6.102871 33.818432 13.133725 31.405402 30.331416 -19.006534 -10.150377 64.108173 -14.165095 1.427086 -1.791857 0.041260 0.213130 -0.128660 0.015100 
4.339280 16.617810 -0.884750 6.665375 37.131927 -9.678739 -15.054295 10.702634 4.558120 18.093662 -3.037182 -12.722816 -42.333037 30.680633 37.482752 1.824584 12.595437 0.272550 0.551880 0.559770 0.348190 18.549440 -11.247335 2.268520 -1.905031 2.429331 -13.057050 6.057357 -6.715938 27.643530 -0.483593 -4.578547 2.576407 0.371300 -0.026000 0.084060 -5.255582 2.670067 -8.779271 17.383263 -1.113381 17.167304 -8.623233 3.109706 22.670782 2.751515 4.994042 -18.985420 9.962946 -13.456583 31.146839 3.643820 -11.843270 -15.928960 -0.970750 -31.609232 12.433044 -5.228670 -9.734768 0.698089 8.206577 5.183588 -0.571589 -4.130478 2.729580 0.239440 -0.117400 0.121380 0.089040 -4.439397 32.862543 12.672014 31.908559 27.941122 -19.077372 -6.317789 69.567130 -13.932191 1.498080 -1.799933 0.025540 0.197940 -0.107620 0.001910 
4.341220 16.644370 -0.874400 6.503622 33.623806 -8.553546 -15.029946 10.948255 4.351828 16.644922 -2.347498 -11.074630 -41.018869 28.490848 34.820694 1.706511 11.998921 0.463820 0.501060 0.455130 0.354810 18.543616 -11.280100 2.371843 -1.452487 2.235028 -13.052977 6.253516 -6.308718 24.781064 -0.425331 -4.227399 2.723937 0.281850 -0.035030 0.114480 -5.100912 2.466389 -8.612276 16.642988 -0.584261 16.867017 -8.020882 2.914890 19.348425 2.499690 5.043570 -17.403249 9.834987 -12.717371 31.332244 3.267180 -10.841940 -15.592540 -2.962666 -28.691831 12.003338 -6.717283 -7.962683 0.486175 10.110175 1.219019 -0.552527 -3.981660 2.842391 0.278030 -0.114860 0.124480 0.068400 -2.168757 29.505709 11.353061 33.002666 25.521564 -15.255438 5.478401 75.753493 -6.768621 1.688108 -1.876966 0.023350 0.147770 -0.094250 -0.027080 
4.346390 16.689180 -0.880420 6.159819 31.430958 -7.868745 -15.001841 11.254192 4.028300 13.980573 -2.025118 -8.925635 -36.956277 25.270152 33.011121 1.516601 11.189620 0.724677 0.452720 0.383200 0.338970 18.537505 -11.367753 2.489235 -1.035515 1.730326 -12.612253 6.370170 -5.825322 21.130552 -0.357973 -3.893120 2.859814 0.229130 -0.028750 0.129570 -5.063187 2.262811 -8.423448 16.557554 -0.551872 16.134461 -8.208724 2.470900 17.867767 2.604963 4.888523 -16.465809 9.279329 -12.149408 31.472682 2.183150 -10.241800 -14.269520 -3.877453 -26.501328 11.236553 -6.886002 -7.674457 0.231156 11.295998 0.307020 -0.550067 -3.961941 2.896030 0.267210 -0.096180 0.108420 0.060020 -1.542029 26.990638 11.013220 32.927967 22.873301 -13.054424 10.656233 80.829869 -2.867489 1.811006 -1.919289 0.021260 0.110110 -0.084920 -0.033590 
4.353800 16.748850 -0.906350 5.804952 30.375033 -7.811929 -14.968200 11.577139 3.612329 10.470088 -1.813694 -6.344913 -30.907418 21.327625 31.530239 1.249080 10.109396 1.091604 0.407260 0.334730 0.282420 18.546486 -11.505740 2.597552 -0.979920 1.106073 -11.735080 6.497084 -5.476585 17.871242 -0.296711 -3.731730 2.946892 0.207600 0.035300 0.126830 -5.132740 2.107937 -8.191374 16.884690 -1.019541 15.419799 -8.651660 1.691546 18.012523 2.601592 4.362836 -15.635073 8.132589 -11.014715 31.247583 2.613060 -10.178980 -12.480440 -3.442193 -24.916301 10.419470 -6.576543 -9.033606 0.404501 10.616235 2.683515 -0.447421 -4.060369 2.894693 0.211640 -0.054450 0.051980 0.071940 -1.807915 25.193556 10.939714 31.481448 20.873558 -11.706462 13.481266 86.931757 -0.689788 1.882042 -1.974395 0.012270 0.109790 -0.065370 -0.007110 
4.351550 16.807270 -0.935660 5.053649 28.875048 -7.990905 -14.901339 11.782758 3.200557 7.391837 -1.080550 -3.478194 -25.243914 17.520983 28.777379 0.950164 8.861334 1.539702 0.332750 0.248960 0.192640 18.614010 -11.650810 2.756719 -0.175154 0.675735 -10.851583 6.282620 -5.027888 14.502750 -0.231494 -3.628993 3.018437 0.174800 0.136820 0.135780 -5.319030 2.195474 -7.996196 18.027343 -1.718783 14.413117 -9.656398 0.917870 19.002629 2.723647 3.524307 -15.240535 6.772660 -9.223242 30.748321 2.732400 -9.694340 -9.567970 -1.527049 -23.586808 10.293806 -8.451664 -8.444250 0.297352 11.899545 2.561435 -0.407840 -4.122290 2.956427 0.142690 0.016580 -0.030760 0.088200 -3.721944 24.132489 10.960086 31.027854 19.787927 -12.186479 175.917120 88.586425 162.609306 1.853535 -1.767599 -0.011210 0.106880 -0.023770 0.024090 
